{
    "asset" : {
        "generator" : "Khronos glTF Blender I/O v1.7.33",
        "version" : "2.0"
    },
    "scene" : 0,
    "scenes" : [
        {
            "name" : "Scene",
            "nodes" : [
                0,
                1
            ]
        }
    ],
    "nodes" : [
        {
            "mesh" : 0,
            "name" : "RingBase",
            "scale" : [
                1.0847034454345703,
                1.0847034454345703,
                1.0847034454345703
            ]
        },
        {
            "mesh" : 1,
            "name" : "RingDisplay",
            "scale" : [
                1.0847034454345703,
                1.0847034454345703,
                1.0847034454345703
            ]
        }
    ],
    "materials" : [
        {
            "doubleSided" : true,
            "name" : "Base",
            "pbrMetallicRoughness" : {
                "baseColorFactor" : [
                    0,
                    0,
                    0,
                    1
                ],
                "metallicFactor" : 0.75,
                "roughnessFactor" : 0.09999999403953552
            }
        },
        {
            "doubleSided" : true,
            "emissiveFactor" : [
                1,
                1,
                1
            ],
            "name" : "LCD",
            "pbrMetallicRoughness" : {
                "metallicFactor" : 0,
                "roughnessFactor" : 0.09090909361839294
            }
        }
    ],
    "meshes" : [
        {
            "name" : "Circle.001",
            "primitives" : [
                {
                    "attributes" : {
                        "POSITION" : 0,
                        "NORMAL" : 1,
                        "TEXCOORD_0" : 2
                    },
                    "indices" : 3,
                    "material" : 0
                }
            ]
        },
        {
            "name" : "Circle.003",
            "primitives" : [
                {
                    "attributes" : {
                        "POSITION" : 4,
                        "NORMAL" : 5,
                        "TEXCOORD_0" : 6
                    },
                    "indices" : 7,
                    "material" : 1
                }
            ]
        }
    ],
    "accessors" : [
        {
            "bufferView" : 0,
            "componentType" : 5126,
            "count" : 768,
            "max" : [
                1.0053229331970215,
                0.21083535254001617,
                0.9905431866645813
            ],
            "min" : [
                -0.9946770668029785,
                -0.1557794213294983,
                -1.009456753730774
            ],
            "type" : "VEC3"
        },
        {
            "bufferView" : 1,
            "componentType" : 5126,
            "count" : 768,
            "type" : "VEC3"
        },
        {
            "bufferView" : 2,
            "componentType" : 5126,
            "count" : 768,
            "type" : "VEC2"
        },
        {
            "bufferView" : 3,
            "componentType" : 5123,
            "count" : 4608,
            "type" : "SCALAR"
        },
        {
            "bufferView" : 4,
            "componentType" : 5126,
            "count" : 136,
            "max" : [
                1.0137989521026611,
                0.18473833799362183,
                0.9990193843841553
            ],
            "min" : [
                -1.0031532049179077,
                -0.12968237698078156,
                -1.0179328918457031
            ],
            "type" : "VEC3"
        },
        {
            "bufferView" : 5,
            "componentType" : 5126,
            "count" : 136,
            "type" : "VEC3"
        },
        {
            "bufferView" : 6,
            "componentType" : 5126,
            "count" : 136,
            "type" : "VEC2"
        },
        {
            "bufferView" : 7,
            "componentType" : 5123,
            "count" : 384,
            "type" : "SCALAR"
        }
    ],
    "bufferViews" : [
        {
            "buffer" : 0,
            "byteLength" : 9216,
            "byteOffset" : 0
        },
        {
            "buffer" : 0,
            "byteLength" : 9216,
            "byteOffset" : 9216
        },
        {
            "buffer" : 0,
            "byteLength" : 6144,
            "byteOffset" : 18432
        },
        {
            "buffer" : 0,
            "byteLength" : 9216,
            "byteOffset" : 24576
        },
        {
            "buffer" : 0,
            "byteLength" : 1632,
            "byteOffset" : 33792
        },
        {
            "buffer" : 0,
            "byteLength" : 1632,
            "byteOffset" : 35424
        },
        {
            "buffer" : 0,
            "byteLength" : 1088,
            "byteOffset" : 37056
        },
        {
            "buffer" : 0,
            "byteLength" : 768,
            "byteOffset" : 38144
        }
    ],
    "buffers" : [
        {
            "byteLength" : 38912,
            "uri" : "data:application/octet-stream;base64,"
        }
    ]
}
